<svg xmlns="http://www.w3.org/2000/svg" version="1.1" xmlns:xlink="http://www.w3.org/1999/xlink" width="1500" height="318" viewBox="0 0 1500 318"><svg xml:space="preserve" width="1500" height="318" data-version="2" data-id="lg_skwpOdkbXi0tvPPm2F" viewBox="0 0 571 318" x="0" y="0"><rect width="100%" height="100%" fill="transparent"></rect><path fill="#010c80" d="M560.088 167.008 293.23 313.317a13.164 9.918 0 0 1-15.472 0L10.911 167.008a13.152 9.909 0 0 1 0-16.017L277.758 4.682a13.164 9.918 0 0 1 15.472 0l266.858 146.31a13.152 9.909 0 0 1 0 16.016"></path><path fill="#0080ff" d="M139.24 144.84h6.23l14.03 29.01h-6.18l-2.32-4.88h-16.94l-2.24 4.88h-6.2Zm9.44 19.28-6.27-13.17-6.1 13.17Z"></path><rect width="33.88" height="29.01" x="-16.94" y="-14.51" fill="none" rx="0" ry="0" transform="translate(143.06 159.84)"></rect><path fill="#0080ff" d="M164.01 144.84h14.75q3.34 0 5.79.7t4.06 2.01q1.62 1.32 2.41 3.21.78 1.9.78 4.29 0 1.61-.39 3.07-.39 1.46-1.19 2.68-.81 1.23-2.03 2.18-1.23.96-2.88 1.59l6.31 9.28h-7.2l-5.46-8.24h-.16l-8.91-.02v8.26h-5.88Zm14.9 15.66q1.67 0 2.92-.39 1.25-.38 2.1-1.09.84-.7 1.26-1.72.42-1.01.42-2.25 0-2.43-1.67-3.76-1.67-1.32-5.03-1.32h-9.02v10.53Z"></path><rect width="27.79" height="29.01" x="-13.89" y="-14.51" fill="none" rx="0" ry="0" transform="translate(178.4 159.84)"></rect><path fill="#0080ff" d="M197.67 144.84h5.88v15.98q0 1.97.54 3.5t1.6 2.59q1.07 1.05 2.65 1.6 1.57.55 3.67.55 2.08 0 3.66-.55 1.59-.55 2.66-1.6 1.06-1.06 1.6-2.59.54-1.53.54-3.5v-15.98h5.88v16.69q0 2.85-.96 5.19-.97 2.34-2.8 4.01-1.84 1.67-4.5 2.58-2.67.91-6.08.91t-6.08-.91q-2.66-.91-4.5-2.58-1.83-1.67-2.8-4.01-.96-2.34-.96-5.19Z"></path><rect width="28.68" height="29.38" x="-14.34" y="-14.69" fill="none" rx="0" ry="0" transform="translate(212.51 160.03)"></rect><path fill="#0080ff" d="M234.87 165.22q1.58.89 3.2 1.6 1.62.72 3.37 1.21 1.74.49 3.66.75 1.92.26 4.09.26 2.62 0 4.46-.34 1.83-.35 2.99-.95 1.16-.6 1.69-1.44.53-.83.53-1.82 0-1.57-1.32-2.49-1.31-.92-4.06-.92-1.21 0-2.54.16-1.34.16-2.7.34-1.37.19-2.69.34-1.33.16-2.5.16-1.95 0-3.74-.5-1.79-.5-3.17-1.5t-2.2-2.51q-.81-1.5-.81-3.5 0-1.19.32-2.36t1.04-2.24q.71-1.06 1.85-1.98 1.13-.92 2.73-1.59 1.61-.67 3.71-1.05 2.11-.38 4.8-.38 1.95 0 3.91.22 1.97.21 3.84.6 1.86.39 3.59.94 1.72.54 3.21 1.21l-2.58 4.75q-1.23-.54-2.64-.99-1.41-.46-2.95-.79-1.54-.33-3.18-.53-1.64-.19-3.35-.19-2.43 0-4 .35-1.57.35-2.49.9-.93.55-1.29 1.22-.36.68-.36 1.35 0 1.3 1.16 2.12 1.17.83 3.57.83.96 0 2.21-.14 1.26-.14 2.64-.31 1.38-.16 2.82-.3 1.44-.14 2.79-.14 2.56 0 4.54.57 1.97.58 3.31 1.65 1.34 1.06 2.02 2.58.69 1.51.69 3.38 0 2.51-1.16 4.46-1.16 1.96-3.3 3.31-2.15 1.34-5.17 2.04-3.02.69-6.74.69-2.44 0-4.78-.3-2.34-.31-4.48-.87-2.15-.57-4.09-1.36-1.93-.79-3.59-1.73Z"></path><rect width="33.31" height="29.78" x="-16.66" y="-14.89" fill="none" rx="0" ry="0" transform="translate(248.88 159.86)"></rect><path fill="#0080ff" d="M280.25 150h-10.7v-5.16h27.29V150h-10.7v23.85h-5.89Z"></path><rect width="27.29" height="29.01" x="-13.64" y="-14.51" fill="none" rx="0" ry="0" transform="translate(283.7 159.84)"></rect><path fill="#0080ff" d="m312 166.66-12.67-21.82h6.66l8.92 16.5 8.82-16.5h6.66l-12.51 21.79v7.22H312Z"></path><rect width="31.06" height="29.01" x="-15.53" y="-14.51" fill="none" rx="0" ry="0" transform="translate(315.36 159.84)"></rect><path fill="#0080ff" d="M334.27 170.64q0-.75.3-1.41.31-.65.88-1.15.58-.49 1.4-.77.81-.27 1.83-.27t1.84.27q.82.28 1.38.77.57.5.87 1.15.31.66.31 1.41 0 .74-.31 1.4-.3.65-.87 1.14-.56.48-1.38.77-.82.29-1.84.29t-1.83-.29q-.82-.29-1.4-.77-.57-.49-.88-1.14-.3-.66-.3-1.4"></path><rect width="8.81" height="7.2" x="-4.41" y="-3.6" fill="none" rx="0" ry="0" transform="translate(339.18 171.14)"></rect><path fill="#0080ff" d="M350.76 144.84h10.63q4.66 0 8.09 1.01 3.44 1 5.69 2.86 2.26 1.87 3.36 4.53t1.1 5.98q0 3.16-1.09 5.84-1.1 2.68-3.34 4.64-2.25 1.96-5.68 3.06-3.43 1.1-8.09 1.1l-10.67-.01Zm12.08 23.92q2.64 0 4.62-.68 1.99-.67 3.31-1.92 1.33-1.24 2-3 .67-1.76.67-3.94 0-2.13-.67-3.85-.67-1.71-2-2.91-1.32-1.2-3.31-1.85-1.98-.64-4.62-.64h-6.2v18.79Z"></path><rect width="28.87" height="29.02" x="-14.44" y="-14.51" fill="none" rx="0" ry="0" transform="translate(365.7 159.85)"></rect><path fill="#0080ff" d="M385.53 144.84h24.7V150h-18.81v5.79h16.66v4.84h-16.66v8.08h19.2v5.14h-25.09Z"></path><rect width="25.09" height="29.01" x="-12.54" y="-14.51" fill="none" rx="0" ry="0" transform="translate(398.57 159.84)"></rect><path fill="#0080ff" d="M413.27 144.84h6.52l9.11 22.12 9.11-22.12h6.51l-12.71 29.01h-5.83Z"></path><rect width="31.25" height="29.01" x="-15.63" y="-14.51" fill="none" rx="0" ry="0" transform="translate(429.4 159.84)"></rect><path fill="#fff" d="M243.73 233.42v-4.36q-.38.6-1.07.95-.7.35-1.63.35-1.06 0-1.88-.51-.82-.52-1.29-1.52-.47-1.01-.47-2.51v-.19q0-1.64.5-2.7.49-1.07 1.34-1.6.84-.53 1.87-.53 1.01 0 1.72.41.71.4 1.09 1.09l.16-1.32h1.46v12.44Zm-2.27-4.36q.63 0 1.14-.3.52-.31.82-.96.31-.64.31-1.63v-1.01q0-1.15-.31-1.82-.3-.67-.83-.96-.52-.3-1.13-.3-.63 0-1.14.31-.52.3-.82.98-.31.67-.31 1.81v.99q0 .99.31 1.63.3.65.82.96.51.3 1.14.3"></path><rect width="8.14" height="12.62" x="-4.07" y="-6.31" fill="none" rx="0" ry="0" transform="translate(241.96 227.61)"></rect><path fill="#fff" d="M251.77 230.36q-1.47 0-2.36-.83-.89-.83-.89-2.5v-6.05h1.81v5.71q0 1.15.54 1.71.53.56 1.48.56.63 0 1.13-.32.49-.31.77-.85t.28-1.21v-5.6h1.8v7.54q0 .29.12.42.13.12.38.12.18 0 .36-.03.18-.04.38-.18v1.17q-.23.16-.58.25-.36.09-.72.09-.64 0-.98-.19-.33-.19-.45-.53-.11-.34-.15-.77-.27.48-.68.81-.42.34-.98.51-.55.17-1.26.17"></path><rect width="9.05" height="9.38" x="-4.53" y="-4.69" fill="none" rx="0" ry="0" transform="translate(253.54 226.17)"></rect><path fill="#fff" d="M263.37 230.36q-1.44 0-2.39-.58-.94-.57-1.4-1.62-.46-1.04-.46-2.39v-.38q0-1.4.52-2.43.52-1.02 1.49-1.59.98-.57 2.31-.57 1.24 0 2.13.51.89.5 1.39 1.36.49.87.49 1.98v1.23h-6.46v.3q0 1.43.68 2.16.69.74 1.73.74 1.15 0 1.76-.56.6-.55.6-1.72h1.69q0 1.09-.51 1.89-.51.81-1.42 1.24-.91.43-2.15.43m-2.36-5.65h4.68v-.27q0-.69-.28-1.22t-.8-.83q-.52-.31-1.21-.31-.77 0-1.3.38t-.81.96q-.28.59-.28 1.2Z"></path><rect width="8.33" height="9.56" x="-4.17" y="-4.78" fill="none" rx="0" ry="0" transform="translate(263.79 226.08)"></rect><path fill="#fff" d="M274.04 230.36q-1.13 0-2.01-.32-.87-.31-1.36-.91-.5-.61-.5-1.43v-.17q0-.1.02-.23h1.55v.18q0 .76.65 1.18.66.42 1.88.42 1.1 0 1.67-.39.57-.38.57-1.01 0-.42-.24-.69-.23-.27-.83-.46-.61-.2-1.74-.38-1.21-.22-1.95-.53-.73-.32-1.06-.83-.32-.51-.32-1.29 0-.9.48-1.49.49-.6 1.36-.9.88-.31 2.05-.31 1.02 0 1.84.31.82.3 1.31.85.48.55.48 1.33v.12q0 .07-.03.2h-1.57q0-.65-.3-.98-.29-.33-.79-.45-.49-.12-1.09-.12-2.09 0-2.09 1.3 0 .34.22.56.22.23.78.41.57.18 1.63.38 1.32.23 2.08.57.77.35 1.11.88.34.53.34 1.37 0 .96-.49 1.59-.5.63-1.43.93-.92.31-2.22.31"></path><rect width="8.01" height="9.56" x="-4" y="-4.78" fill="none" rx="0" ry="0" transform="translate(274.68 226.08)"></rect><path fill="#fff" d="M286.64 230.36q-1.62 0-2.57-.71-.96-.71-.96-2.33v-4.93h-2.66v-1.41h2.72l.63-2.93h1.11v2.93h4.16v1.41h-4.16v4.78q0 .62.25 1.01.26.4.74.58.49.18 1.23.18.57 0 1.07-.16.49-.15.87-.33v1.39q-.43.25-1.1.38-.66.14-1.33.14"></path><rect width="8.62" height="12.31" x="-4.31" y="-6.16" fill="none" rx="0" ry="0" transform="translate(285.26 224.7)"></rect><path fill="#fff" d="M295.37 230.18v-7.79h-3.29v-1.41h5.09v9.2Zm-3.29 0v-1.39h8.2v1.39Zm3.22-11.09v-1.73h1.69v1.73Z"></path><rect width="8.2" height="12.82" x="-4.1" y="-6.41" fill="none" rx="0" ry="0" transform="translate(296.68 224.27)"></rect><path fill="#fff" d="M306.57 230.36q-1.34 0-2.29-.59-.95-.6-1.46-1.65-.5-1.05-.5-2.39v-.3q0-1.37.5-2.41.51-1.05 1.46-1.63.95-.59 2.27-.59 1.35 0 2.3.6.96.59 1.46 1.63.5 1.05.5 2.4v.3q0 1.37-.5 2.42-.5 1.04-1.46 1.62-.95.59-2.28.59m0-1.28q1.04 0 1.71-.76.66-.77.66-2.14v-1.2q0-1.37-.66-2.14-.67-.76-1.71-.76-1.03 0-1.7.76-.68.77-.68 2.14v1.2q0 1.37.68 2.14.67.76 1.7.76"></path><rect width="8.49" height="9.56" x="-4.25" y="-4.78" fill="none" rx="0" ry="0" transform="translate(307.06 226.08)"></rect><path fill="#fff" d="M313.51 230.18v-9.2h1.46l.18 1.32q.42-.78 1.17-1.14.76-.36 1.68-.36 1.51 0 2.41.85.9.84.9 2.5v6.03h-1.8v-5.51q0-1.29-.53-1.89-.53-.59-1.49-.59-.66 0-1.15.33-.49.33-.76.92-.27.58-.27 1.34v5.4Z"></path><rect width="7.8" height="9.38" x="-3.9" y="-4.69" fill="none" rx="0" ry="0" transform="translate(317.91 225.99)"></rect><path fill="#fff" d="M328.04 230.36q-1.13 0-2.01-.32-.87-.31-1.36-.91-.5-.61-.5-1.43v-.17q0-.1.02-.23h1.55v.18q0 .76.65 1.18.66.42 1.88.42 1.1 0 1.67-.39.57-.38.57-1.01 0-.42-.24-.69-.23-.27-.83-.46-.61-.2-1.74-.38-1.21-.22-1.95-.53-.73-.32-1.06-.83-.32-.51-.32-1.29 0-.9.48-1.49.49-.6 1.36-.9.88-.31 2.05-.31 1.02 0 1.84.31.82.3 1.31.85.48.55.48 1.33v.12q0 .07-.03.2h-1.57q0-.65-.3-.98-.29-.33-.79-.45-.49-.12-1.09-.12-2.09 0-2.09 1.3 0 .34.22.56.22.23.78.41.57.18 1.63.38 1.32.23 2.08.57.77.35 1.11.88.34.53.34 1.37 0 .96-.49 1.59-.5.63-1.43.93-.92.31-2.22.31"></path><rect width="8.01" height="9.56" x="-4" y="-4.78" fill="none" rx="0" ry="0" transform="translate(328.68 226.08)"></rect><path fill="#fff" d="M237.36 249.62v-1.57l7.65-2.92-7.65-2.91v-1.59l9.18 3.55v1.89Z"></path><rect width="9.18" height="8.99" x="-4.59" y="-4.5" fill="none" rx="0" ry="0" transform="translate(242.45 245.63)"></rect><path fill="#fff" d="M262.12 249.89q-1.42 0-2.18-.67-.77-.67-.77-1.96 0-1.08.59-1.74.58-.66 1.89-.96 1.3-.31 3.44-.31v-1.01q0-.86-.44-1.26-.44-.39-1.48-.39-.96 0-1.48.39-.52.4-.52 1.12v.22h-1.66l-.04-.38q-.01-.09-.01-.07 0 .01.01.05t.01 0q0-1.19 1.02-1.89 1.01-.7 2.72-.7 1.82 0 2.75.7.92.7.92 2.14v4.88q0 .29.15.41.14.13.38.13.41 0 .72-.22v1.17q-.24.17-.58.26-.34.09-.72.09-.54 0-.88-.14-.34-.13-.51-.46-.16-.32-.21-.9-.31.56-.79.89-.49.34-1.08.47-.6.14-1.25.14m.56-1.28q.83 0 1.36-.36.53-.36.79-.97.26-.62.26-1.37v-.56q-1.54 0-2.45.17-.91.17-1.3.56t-.39 1.09q0 .72.43 1.08.42.36 1.3.36"></path><rect width="8.97" height="9.56" x="-4.49" y="-4.78" fill="none" rx="0" ry="0" transform="translate(264.15 245.61)"></rect><path fill="#fff" d="M270.31 249.71v-9.2h1.46l.18 1.31q.42-.77 1.17-1.13.76-.36 1.68-.36 1.51 0 2.41.84.9.85.9 2.51v6.03h-1.8v-5.51q0-1.3-.53-1.89-.53-.6-1.49-.6-.66 0-1.15.34-.49.33-.76.92-.27.58-.27 1.34v5.4Z"></path><rect width="7.8" height="9.38" x="-3.9" y="-4.69" fill="none" rx="0" ry="0" transform="translate(274.71 245.52)"></rect><path fill="#fff" d="M284.84 249.89q-1.13 0-2.01-.32-.87-.31-1.36-.92-.5-.6-.5-1.43v-.16q0-.11.02-.23h1.55v.18q0 .75.65 1.18.66.42 1.88.42 1.1 0 1.67-.39.57-.39.57-1.02 0-.41-.24-.68-.23-.27-.83-.47-.61-.2-1.74-.38-1.21-.21-1.95-.53-.73-.31-1.06-.82-.32-.52-.32-1.29 0-.9.48-1.5.49-.59 1.36-.9.88-.3 2.05-.3 1.02 0 1.84.3.82.31 1.31.86.48.55.48 1.32v.13q0 .07-.03.2h-1.57q0-.65-.3-.98-.29-.34-.79-.45-.49-.12-1.09-.12-2.09 0-2.09 1.29 0 .35.22.57.22.23.78.41.57.18 1.63.37 1.32.24 2.08.58.77.34 1.11.87.34.53.34 1.38 0 .95-.49 1.58-.5.63-1.43.94-.92.31-2.22.31"></path><rect width="8.01" height="9.56" x="-4" y="-4.78" fill="none" rx="0" ry="0" transform="translate(285.48 245.61)"></rect><path fill="#fff" d="m292.45 249.71-2.08-9.2h1.49l1.58 6.68h.08l1.49-6.68h1.71l1.39 6.68h.07l1.55-6.68h1.44l-2.04 9.2h-1.82l-1.42-6.88h-.07l-1.57 6.88Z"></path><rect width="10.8" height="9.2" x="-5.4" y="-4.6" fill="none" rx="0" ry="0" transform="translate(296.27 245.61)"></rect><path fill="#fff" d="M306.57 249.89q-1.44 0-2.39-.58-.94-.58-1.4-1.62-.46-1.04-.46-2.39v-.38q0-1.41.52-2.43.52-1.03 1.49-1.59.98-.57 2.31-.57 1.24 0 2.13.5.89.51 1.39 1.37.49.86.49 1.98v1.22h-6.46v.31q0 1.42.68 2.16.69.74 1.73.74 1.15 0 1.76-.56.6-.56.6-1.73h1.69q0 1.1-.51 1.9-.51.8-1.42 1.23-.91.44-2.15.44m-2.36-5.66h4.68v-.27q0-.68-.28-1.21-.28-.53-.8-.84-.52-.3-1.21-.3-.77 0-1.3.37-.53.38-.81.97-.28.58-.28 1.19Z"></path><rect width="8.33" height="9.56" x="-4.17" y="-4.78" fill="none" rx="0" ry="0" transform="translate(306.99 245.61)"></rect><path fill="#fff" d="M315.12 249.71v-7.8h-2.33v-1.4h3.78l.09 1.35q.33-.72 1-1.13.68-.4 1.56-.4 1.35 0 2.08.8t.73 2.04q0 .2-.01.37-.01.17-.05.41h-1.53v-.38q0-.49-.18-.9-.19-.42-.58-.68-.39-.26-1-.26-.59 0-1 .34-.4.35-.6.87-.2.52-.2 1.1v5.67Zm-2.42 0v-1.39h8.3v1.39Z"></path><rect width="9.33" height="9.38" x="-4.67" y="-4.69" fill="none" rx="0" ry="0" transform="translate(317.87 245.52)"></rect><path fill="#fff" d="M328.04 249.89q-1.13 0-2.01-.32-.87-.31-1.36-.92-.5-.6-.5-1.43v-.16q0-.11.02-.23h1.55v.18q0 .75.65 1.18.66.42 1.88.42 1.1 0 1.67-.39.57-.39.57-1.02 0-.41-.24-.68-.23-.27-.83-.47-.61-.2-1.74-.38-1.21-.21-1.95-.53-.73-.31-1.06-.82-.32-.52-.32-1.29 0-.9.48-1.5.49-.59 1.36-.9.88-.3 2.05-.3 1.02 0 1.84.3.82.31 1.31.86.48.55.48 1.32v.13q0 .07-.03.2h-1.57q0-.65-.3-.98-.29-.34-.79-.45-.49-.12-1.09-.12-2.09 0-2.09 1.29 0 .35.22.57.22.23.78.41.57.18 1.63.37 1.32.24 2.08.58.77.34 1.11.87.34.53.34 1.38 0 .95-.49 1.58-.5.63-1.43.94-.92.31-2.22.31"></path><rect width="8.01" height="9.56" x="-4" y="-4.78" fill="none" rx="0" ry="0" transform="translate(328.68 245.61)"></rect><path fill="#fff" d="M52.12 167.58q-1.92 0-3.18-.77-1.26-.77-1.87-2.16-.61-1.39-.61-3.19v-.51q0-1.87.69-3.24.7-1.37 1.99-2.12 1.3-.76 3.08-.76 1.65 0 2.84.67 1.19.68 1.85 1.83.66 1.15.66 2.64v1.63h-8.62v.41q0 1.89.91 2.88.92.98 2.31.98 1.53 0 2.34-.74.8-.75.8-2.31h2.26q0 1.47-.69 2.54-.68 1.06-1.89 1.64-1.21.58-2.87.58m-3.14-7.54h6.24v-.36q0-.91-.38-1.62-.37-.71-1.06-1.12-.7-.4-1.61-.4-1.03 0-1.74.5t-1.08 1.28q-.37.78-.37 1.6Z"></path><rect width="11.11" height="12.75" x="-5.55" y="-6.38" fill="none" rx="0" ry="0" transform="translate(52.52 161.7)"></rect><path fill="#fff" d="M66.35 167.58q-1.51 0-2.67-.42-1.17-.42-1.83-1.23-.66-.8-.66-1.91v-.21q0-.15.03-.31h2.06v.24q0 1 .88 1.57.87.56 2.5.56 1.47 0 2.22-.51.76-.52.76-1.36 0-.55-.31-.91t-1.12-.63q-.8-.26-2.31-.5-1.61-.29-2.6-.71-.98-.42-1.41-1.1-.43-.69-.43-1.72 0-1.2.64-1.99.65-.79 1.82-1.2 1.16-.41 2.72-.41 1.37 0 2.46.41 1.09.41 1.74 1.14.65.73.65 1.76v.17q0 .1-.05.27h-2.09q0-.87-.39-1.31-.4-.45-1.06-.6-.66-.16-1.45-.16-2.79 0-2.79 1.73 0 .46.29.76t1.05.54q.75.24 2.17.5 1.75.31 2.77.77 1.02.45 1.48 1.16.45.71.45 1.84 0 1.27-.66 2.11-.66.84-1.89 1.25-1.24.41-2.97.41"></path><rect width="10.68" height="12.75" x="-5.34" y="-6.38" fill="none" rx="0" ry="0" transform="translate(67.03 161.7)"></rect><path fill="#fff" d="M83.15 167.58q-2.16 0-3.43-.95t-1.27-3.11v-6.58H74.9v-1.87h3.62l.84-3.91h1.49v3.91h5.54v1.87h-5.54v6.39q0 .81.33 1.34.34.53.99.77.65.24 1.63.24.77 0 1.43-.2.66-.21 1.16-.45v1.85q-.57.34-1.46.52t-1.78.18"></path><rect width="11.49" height="16.42" x="-5.75" y="-8.21" fill="none" rx="0" ry="0" transform="translate(81.14 159.87)"></rect><path fill="#fff" d="M93.76 167.34v-2.98h3.12v2.98Z"></path><rect width="3.12" height="2.98" x="-1.56" y="-1.49" fill="none" rx="0" ry="0" transform="translate(95.82 166.35)"></rect><path fill="#fff" d="M468.25 166.91v-.66q0-1.36.5-2.34.51-.98 1.59-1.71l4.42-2.9q.7-.49 1.22-1.24.52-.76.52-1.8 0-1.27-.75-2.04t-2.2-.77q-.88 0-1.57.38-.7.39-1.1 1.06-.41.67-.41 1.53v.32q0 .14.02.27h-2.09q-.02-.15-.02-.23v-.17q0-1.47.66-2.6.66-1.14 1.84-1.77 1.17-.64 2.69-.64h.24q1.52 0 2.63.58 1.11.58 1.72 1.62.6 1.03.6 2.4 0 1.14-.38 1.99-.39.84-1.04 1.48-.64.64-1.46 1.19l-3.72 2.42q-.48.33-.74.63-.27.29-.38.56-.11.26-.15.5h7.94v1.94Z"></path><rect width="10.58" height="15.31" x="-5.29" y="-7.66" fill="none" rx="0" ry="0" transform="translate(474.04 159.75)"></rect><path fill="#fff" d="M486.51 167.13q-1.41 0-2.55-.65-1.15-.65-1.81-1.79-.66-1.15-.66-2.64v-5.37q0-1.5.67-2.64.67-1.14 1.83-1.79 1.15-.65 2.58-.65h.4q1.45 0 2.57.65 1.13.65 1.77 1.79.65 1.14.65 2.64v5.37q0 1.49-.66 2.64-.66 1.14-1.8 1.79-1.14.65-2.57.65Zm.22-1.76q.86 0 1.54-.41.68-.4 1.06-1.09.39-.68.39-1.54v-5.94q0-.88-.39-1.56-.38-.68-1.06-1.08-.68-.39-1.54-.39t-1.53.39q-.67.4-1.07 1.08-.39.68-.39 1.56v5.94q0 .86.39 1.54.4.69 1.07 1.09.67.41 1.53.41"></path><rect width="10.47" height="15.53" x="-5.24" y="-7.76" fill="none" rx="0" ry="0" transform="translate(487.23 159.87)"></rect><path fill="#fff" d="M495.18 166.91v-1.83h3.98v-10.71h-3.98v-1.34q.72-.07 1.6-.25.88-.19 1.86-.49.98-.3 1.93-.69h.81v13.48h3.94v1.83Z"></path><rect width="10.14" height="15.31" x="-5.07" y="-7.66" fill="none" rx="0" ry="0" transform="translate(500.75 159.75)"></rect><path fill="#fff" d="M513.17 167.13q-1.6 0-2.79-.65t-1.83-1.76q-.64-1.11-.64-2.56H510q0 .88.39 1.59.38.72 1.08 1.14.69.41 1.64.41.99 0 1.68-.44t1.05-1.18q.37-.75.37-1.61 0-.92-.41-1.66-.41-.74-1.11-1.16-.7-.41-1.58-.41-.86 0-1.62.44-.76.44-1.18 1.12l-1.87-.27.64-8.31h8.54v2.04h-6.71l-.33 4.4q.57-.52 1.36-.85.79-.33 1.72-.33 1.43 0 2.49.62 1.07.63 1.67 1.76.61 1.14.61 2.65 0 1.43-.66 2.56-.66 1.12-1.84 1.79-1.17.67-2.76.67"></path><rect width="10.52" height="15.31" x="-5.26" y="-7.66" fill="none" rx="0" ry="0" transform="translate(513.67 159.97)"></rect><path fill="#fff" d="M276.03 250.52v-12.35h4.3q1.03 0 1.91.27.88.27 1.55.87.67.61 1.04 1.59.38.98.38 2.38v2.13q0 1.37-.38 2.35-.37.98-1.04 1.58-.67.6-1.55.89-.88.29-1.91.29Zm1.91-1.53h2.27q.88 0 1.56-.3.69-.29 1.09-1.03.41-.74.41-2.09v-2.47q0-1.31-.41-2.06-.4-.74-1.09-1.05-.68-.31-1.56-.31h-2.27Z"></path><rect width="9.18" height="12.35" x="-4.59" y="-6.17" fill="none" rx="0" ry="0" transform="translate(281.12 244.84)"></rect><path fill="#fff" d="M290.79 250.7q-.99 0-1.83-.29-.83-.29-1.46-.93-.63-.63-.98-1.7-.35-1.06-.35-2.61v-1.65q0-1.55.36-2.61.36-1.06.99-1.7.63-.64 1.46-.93.84-.29 1.79-.29h.26q1.4 0 2.4.54t1.52 1.63q.52 1.09.52 2.73h-1.82q0-1.19-.26-1.94-.26-.74-.87-1.1-.61-.35-1.64-.35-.59 0-1.09.17-.49.18-.87.58-.38.41-.59 1.11-.22.7-.22 1.76v2.43q0 1.06.22 1.77.21.72.59 1.12.38.41.87.58.5.17 1.09.17 1.55 0 2.19-.8.64-.8.64-2.57h1.76q0 1.59-.52 2.67-.52 1.08-1.51 1.64-.99.57-2.4.57Z"></path><rect width="9.3" height="12.71" x="-4.65" y="-6.36" fill="none" rx="0" ry="0" transform="translate(291.32 244.84)"></rect><path fill="#fff" d="m318.214 82.947-3.245-19.178a3.356 3.356 0 0 0 1.358-2.69 3.371 3.371 0 0 0-3.372-3.371c-.454 0-.886.093-1.28.256l-8.529-8.792a5.757 5.757 0 0 0 1.629-4.013 5.787 5.787 0 0 0-5.78-5.78 5.78 5.78 0 0 0-5.017 2.919l-13.585-2.894a2.841 2.841 0 0 0-5.625.57c0 .498.14.96.365 1.367l-12.369 12.802c-.176-.027-.352-.054-.536-.054a3.555 3.555 0 0 0-3.555 3.556 3.54 3.54 0 0 0 1.784 3.066l-6.436 16.54c-.164-.022-.327-.05-.498-.05a3.556 3.556 0 0 0-3.555 3.557 3.554 3.554 0 0 0 2.198 3.284l-.24 17.236a3.55 3.55 0 0 0-2.326 3.326 3.555 3.555 0 0 0 3.555 3.556 3.543 3.543 0 0 0 3.506-3.07l29.482-1.948a3.238 3.238 0 0 0 2.932 1.872c.75 0 1.432-.264 1.982-.692l11.856 4c.427 2.769 2.82 4.898 5.705 4.898a5.787 5.787 0 0 0 5.78-5.78 5.76 5.76 0 0 0-1.83-4.21l5.607-13.889a3.239 3.239 0 0 0 2.758-3.2 3.237 3.237 0 0 0-2.72-3.194m-40.664-1.85a5.766 5.766 0 0 0-1.521-2.944l7.18-11.547c.438.149.906.233 1.396.233a4.318 4.318 0 0 0 2.259-.638l11.532 14.862a4.005 4.005 0 0 0-.753 1.41zm-5.678 5.911c-2.673 0-4.848-2.175-4.848-4.848s2.175-4.848 4.848-4.848c2.672 0 4.848 2.175 4.848 4.848s-2.176 4.848-4.848 4.848m16.451-22.268a4.364 4.364 0 0 0 .515-1.297l20.935-1.297a3.36 3.36 0 0 0 .628 1.111l-8.538 16.356c-.118-.01-.23-.036-.352-.036a4.016 4.016 0 0 0-1.477.288zm21.358-4.432-20.827 1.296a4.339 4.339 0 0 0-.709-1.639l7.567-10.053a5.735 5.735 0 0 0 5.834.426l8.568 8.94a3.34 3.34 0 0 0-.433 1.03m-10.687-19.996c2.673 0 4.848 2.174 4.848 4.847s-2.175 4.848-4.848 4.848-4.848-2.175-4.848-4.848 2.175-4.847 4.848-4.847m-18.943 1.095 13.245 2.82a5.782 5.782 0 0 0-.082.932c0 1.247.4 2.4 1.074 3.344l-7.647 10.14a4.302 4.302 0 0 0-1.654-.489 3.959 3.959 0 0 0-.608-.047c-.135 0-.261.026-.391.039l-4.81-15.804a2.855 2.855 0 0 0 .873-.935m-3.26 1.274a2.9 2.9 0 0 0 .391.092l4.894 16.053a4.042 4.042 0 0 0-1.583 2.239c-.022.063-.044.125-.063.19l-14.706-4.189a3.53 3.53 0 0 0-1.146-2.07zm-11.314 16.4 14.843 4.156a4.328 4.328 0 0 0 1.311 2.423l-7.078 11.384a5.738 5.738 0 0 0-2.681-.664c-.331 0-.653.034-.969.088l-6.505-16.025a3.561 3.561 0 0 0 1.079-1.363m-3.237 2.118c.161 0 .314-.025.469-.047l6.456 15.904a5.795 5.795 0 0 0-2.964 3.997l-9.187-.947a3.53 3.53 0 0 0-1.3-2.131zm-7.275 40.358a3.545 3.545 0 0 0-1-.408l.222-16.904a3.543 3.543 0 0 0 2.675-2.308l9.28.956a5.756 5.756 0 0 0 1.541 3.24zm30.928-.431-29.54 1.95c-.03-.064-.067-.126-.102-.19l12.892-15.632a5.741 5.741 0 0 0 5.36.046l11.841 12.724a3.208 3.208 0 0 0-.45 1.102m4.504-2.32a3.225 3.225 0 0 0-1.321-.287c-.41 0-.797.083-1.157.223L276.11 86.078a5.76 5.76 0 0 0 1.454-2.945l19.987 1.37a4.032 4.032 0 0 0 .546 1.315zm1.495 1.377 7.7-12.99a4.01 4.01 0 0 0 1.918.502c.048 0 .095-.013.14-.014l4.253 14.659a5.798 5.798 0 0 0-2.927 3.859l-10.765-3.633c.066-.257.11-.522.11-.799 0-.579-.164-1.115-.429-1.584m21.574 7.257c0 2.673-2.174 4.847-4.848 4.847s-4.848-2.174-4.848-4.847 2.175-4.848 4.848-4.848 4.848 2.175 4.848 4.848m-2.63-5.337a5.746 5.746 0 0 0-2.218-.444c-.27 0-.534.025-.794.061l-4.22-14.623a4.053 4.053 0 0 0 1.852-2.541l9.247 2.859c.285.67.797 1.211 1.432 1.56zm3.7-16.712-9.14-2.864a4.04 4.04 0 0 0-1.578-2.223l8.308-15.969c-1.072-.376.54.115.83.115.025 0 .049-.007.075-.007l3.177 18.824a3.24 3.24 0 0 0-1.671 2.124"></path><path fill="#fff" d="m297.76 48.35 1.18-1.71 1.218 1.71h2.07l-2.22-3.18 2.141-3.046h-2.038l-1.1 1.67-1.064-1.67h-2.07l2.06 3.055-2.177 3.172zm14.011 55.978h-2.038l-1.096 1.665-1.063-1.665h-2.076l2.062 3.055-2.174 3.172h2.001l1.18-1.717 1.213 1.717h2.075l-2.225-3.186zm-36.748-25.297h-2.033l-1.1 1.67-1.064-1.67h-2.071l2.057 3.055-2.174 3.171h2.001l1.18-1.712 1.218 1.712h2.07l-2.224-3.18z"></path></svg></svg>