<svg xmlns="http://www.w3.org/2000/svg" version="1.1" xmlns:xlink="http://www.w3.org/1999/xlink" width="1500" height="1500" viewBox="0 0 1500 1500"><rect width="1500" height="1500" x="0" y="0" id="background" stroke="transparent" fill="#ffffff"></rect><svg xml:space="preserve" width="1000" height="1000" data-version="2" data-id="lg_skwpOdkbXi0tvPPm2F" viewBox="0 0 813 454" x="250" y="250"><rect width="100%" height="100%" fill="transparent"></rect><path fill="#121212" d="M797.336 238.4 417.503 446.662a18.737 14.117 0 0 1-22.022 0L15.665 238.4a18.72 14.105 0 0 1 0-22.8L395.481 7.34a18.737 14.117 0 0 1 22.022 0l379.833 208.262a18.72 14.105 0 0 1 0 22.799"></path><path fill="#6e6e6e" d="M198.65 206.84h8.86l19.94 41.21h-8.78l-3.3-6.93H191.3l-3.19 6.93h-8.81Zm13.43 27.4-8.92-18.72-8.67 18.72Z"></path><rect width="48.15" height="41.21" x="-24.07" y="-20.61" fill="none" rx="0" ry="0" transform="translate(203.88 227.94)"></rect><path fill="#6e6e6e" d="M233.86 206.84h20.96q4.74 0 8.22.99 3.48.99 5.78 2.86 2.29 1.87 3.41 4.56 1.12 2.69 1.12 6.09 0 2.3-.55 4.37-.55 2.07-1.7 3.81-1.15 1.74-2.89 3.1-1.74 1.35-4.09 2.25l8.97 13.18h-10.23l-7.75-11.7h-.24l-12.66-.03v11.73h-8.35Zm21.17 22.26q2.37 0 4.15-.56 1.78-.55 2.98-1.55 1.2-1.01 1.79-2.44.6-1.44.6-3.21 0-3.45-2.38-5.34-2.37-1.88-7.14-1.88h-12.82v14.98Z"></path><rect width="39.49" height="41.21" x="-19.75" y="-20.61" fill="none" rx="0" ry="0" transform="translate(254.1 227.94)"></rect><path fill="#6e6e6e" d="M281.69 206.84h8.35v22.7q0 2.8.77 4.97.76 2.18 2.28 3.68 1.52 1.51 3.76 2.28 2.24.78 5.22.78 2.95 0 5.2-.78 2.26-.77 3.78-2.28 1.51-1.5 2.28-3.68.76-2.17.76-4.97v-22.7h8.36v23.71q0 4.06-1.37 7.38-1.37 3.32-3.98 5.69-2.61 2.38-6.4 3.67-3.78 1.29-8.63 1.29-4.85 0-8.64-1.29-3.78-1.29-6.39-3.67-2.61-2.37-3.98-5.69-1.37-3.32-1.37-7.38Z"></path><rect width="40.76" height="41.74" x="-20.38" y="-20.87" fill="none" rx="0" ry="0" transform="translate(302.57 228.21)"></rect><path fill="#6e6e6e" d="M334.55 235.79q2.24 1.27 4.55 2.28 2.31 1.02 4.79 1.72 2.47.7 5.2 1.07 2.73.36 5.82.36 3.71 0 6.32-.48 2.62-.49 4.26-1.35 1.65-.85 2.4-2.04t.75-2.59q0-2.24-1.87-3.54-1.87-1.31-5.77-1.31-1.72 0-3.61.23-1.9.22-3.84.48-1.94.27-3.82.49-1.89.23-3.55.23-2.77 0-5.31-.72-2.55-.71-4.51-2.13-1.97-1.42-3.13-3.56t-1.16-4.98q0-1.69.46-3.35.47-1.66 1.48-3.18 1.02-1.52 2.62-2.82 1.61-1.31 3.89-2.26 2.28-.94 5.28-1.49 2.99-.54 6.81-.54 2.77 0 5.57.31 2.79.3 5.44.85 2.65.56 5.1 1.34 2.46.77 4.56 1.72l-3.66 6.75q-1.74-.76-3.74-1.41-2.01-.64-4.2-1.12-2.19-.47-4.52-.75-2.33-.28-4.76-.28-3.45 0-5.68.5-2.23.51-3.55 1.28-1.31.78-1.83 1.74-.51.97-.51 1.92 0 1.84 1.66 3.01 1.66 1.18 5.06 1.18 1.37 0 3.15-.2 1.78-.2 3.75-.44 1.96-.23 4-.43 2.05-.2 3.97-.2 3.64 0 6.45.82t4.7 2.33q1.9 1.52 2.88 3.67.97 2.15.97 4.81 0 3.56-1.64 6.34-1.65 2.78-4.7 4.69-3.04 1.92-7.34 2.9-4.3.99-9.57.99-3.48 0-6.8-.43-3.33-.44-6.37-1.24-3.05-.8-5.8-1.93-2.76-1.12-5.1-2.46Z"></path><rect width="47.32" height="42.32" x="-23.66" y="-21.16" fill="none" rx="0" ry="0" transform="translate(354.26 227.97)"></rect><path fill="#6e6e6e" d="M399.05 214.17h-15.22v-7.33h38.79v7.33H407.4v33.88h-8.35Z"></path><rect width="38.79" height="41.21" x="-19.39" y="-20.61" fill="none" rx="0" ry="0" transform="translate(403.73 227.94)"></rect><path fill="#6e6e6e" d="m444.16 237.85-18.01-31.01h9.47l12.68 23.44 12.52-23.44h9.47l-17.77 30.96v10.25h-8.36Z"></path><rect width="44.14" height="41.21" x="-22.07" y="-20.61" fill="none" rx="0" ry="0" transform="translate(448.72 227.94)"></rect><path fill="#6e6e6e" d="M475.8 243.49q0-1.05.44-1.99.43-.93 1.25-1.63.82-.7 1.98-1.1 1.16-.39 2.61-.39t2.61.39q1.16.4 1.96 1.1.8.7 1.24 1.63.43.94.43 1.99 0 1.06-.43 1.99-.44.94-1.24 1.62-.8.69-1.96 1.1-1.16.41-2.61.41t-2.61-.41q-1.16-.41-1.98-1.1-.82-.68-1.25-1.62-.44-.93-.44-1.99"></path><rect width="12.52" height="10.23" x="-6.26" y="-5.12" fill="none" rx="0" ry="0" transform="translate(482.56 244)"></rect><path fill="#6e6e6e" d="M499.24 206.84h15.11q6.62 0 11.5 1.43 4.87 1.42 8.08 4.07 3.2 2.65 4.77 6.43 1.57 3.79 1.57 8.51 0 4.48-1.56 8.29-1.55 3.81-4.74 6.59-3.19 2.78-8.07 4.35-4.88 1.57-11.5 1.57l-15.16-.03Zm17.17 33.99q3.74 0 6.56-.96 2.82-.97 4.71-2.73 1.88-1.77 2.83-4.27.95-2.51.95-5.59 0-3.04-.95-5.47-.95-2.44-2.83-4.14-1.89-1.71-4.71-2.63-2.82-.92-6.56-.92h-8.81v26.71Z"></path><rect width="41.03" height="41.24" x="-20.52" y="-20.62" fill="none" rx="0" ry="0" transform="translate(520.25 227.96)"></rect><path fill="#6e6e6e" d="M548.65 206.84h35.1v7.33h-26.74v8.23h23.68v6.88h-23.68v11.47h27.29v7.3h-35.65Z"></path><rect width="35.65" height="41.21" x="-17.82" y="-20.61" fill="none" rx="0" ry="0" transform="translate(566.98 227.94)"></rect><path fill="#6e6e6e" d="M588.07 206.84h9.26l12.94 31.43 12.95-31.43h9.25l-18.06 41.21h-8.28Z"></path><rect width="44.4" height="41.21" x="-22.2" y="-20.61" fill="none" rx="0" ry="0" transform="translate(610.77 227.94)"></rect><path fill="#ffffff" d="M275.98 333.33v-6.3q-.54.86-1.54 1.37-1 .51-2.36.51-1.53 0-2.71-.74-1.19-.75-1.86-2.2-.68-1.46-.68-3.62v-.28q0-2.37.72-3.9.71-1.54 1.93-2.3 1.23-.77 2.71-.77 1.45 0 2.48.59 1.03.58 1.57 1.57l.24-1.9h2.1v17.97Zm-3.27-6.3q.91 0 1.65-.44.74-.44 1.18-1.38.44-.93.44-2.36v-1.46q0-1.66-.44-2.62-.44-.97-1.19-1.39-.76-.43-1.64-.43-.91 0-1.65.44-.74.44-1.19 1.42-.44.97-.44 2.61v1.43q0 1.43.44 2.36.45.94 1.19 1.38.74.44 1.65.44"></path><rect width="11.75" height="18.23" x="-5.88" y="-9.12" fill="none" rx="0" ry="0" transform="translate(273.2 324.71)"></rect><path fill="#ffffff" d="M287.61 328.91q-2.14 0-3.42-1.2-1.29-1.2-1.29-3.61v-8.74h2.63v8.24q0 1.67.76 2.47.77.81 2.15.81.91 0 1.62-.46.72-.45 1.12-1.23.4-.78.4-1.74v-8.09h2.6v10.89q0 .42.19.6.18.18.54.18.26 0 .52-.05t.55-.26v1.69q-.34.24-.85.37-.5.13-1.02.13-.94 0-1.42-.28-.48-.27-.65-.76-.17-.5-.22-1.12-.39.7-.99 1.18t-1.4.73q-.81.25-1.82.25"></path><rect width="13.08" height="13.55" x="-6.54" y="-6.78" fill="none" rx="0" ry="0" transform="translate(289.94 322.63)"></rect><path fill="#ffffff" d="M304.35 328.91q-2.08 0-3.44-.84-1.37-.83-2.03-2.34-.67-1.5-.67-3.45v-.55q0-2.03.76-3.51.75-1.48 2.16-2.3 1.4-.82 3.32-.82 1.8 0 3.09.73 1.28.73 2 1.97.71 1.25.71 2.86v1.77h-9.33v.44q0 2.06.99 3.12.98 1.07 2.49 1.07 1.67 0 2.54-.81.87-.8.87-2.49h2.44q0 1.58-.74 2.74-.74 1.16-2.05 1.78-1.32.63-3.11.63m-3.41-8.17h6.76v-.39q0-.99-.4-1.75-.4-.77-1.16-1.21-.75-.44-1.74-.44-1.12 0-1.88.54-.77.55-1.17 1.39-.41.85-.41 1.73Z"></path><rect width="12.04" height="13.81" x="-6.02" y="-6.91" fill="none" rx="0" ry="0" transform="translate(304.73 322.5)"></rect><path fill="#ffffff" d="M319.77 328.91q-1.64 0-2.9-.46-1.26-.45-1.98-1.32-.71-.88-.71-2.07v-.24q0-.15.02-.33h2.24v.26q0 1.09.95 1.7.95.61 2.72.61 1.58 0 2.4-.56.82-.56.82-1.47 0-.6-.34-.99t-1.21-.67q-.87-.29-2.51-.55-1.74-.31-2.8-.76-1.07-.46-1.54-1.2t-.47-1.86q0-1.3.71-2.16.7-.86 1.96-1.3 1.26-.44 2.95-.44 1.48 0 2.67.44 1.18.44 1.88 1.24.7.79.7 1.91v.18q0 .1-.05.29h-2.26q0-.94-.43-1.42t-1.14-.65q-.72-.17-1.58-.17-3.01 0-3.01 1.87 0 .5.31.82.31.33 1.13.59.82.26 2.35.54 1.9.34 3.01.83 1.1.5 1.59 1.27.5.76.5 1.98 0 1.38-.72 2.29-.71.91-2.05 1.35-1.34.45-3.21.45"></path><rect width="11.57" height="13.81" x="-5.79" y="-6.91" fill="none" rx="0" ry="0" transform="translate(320.46 322.5)"></rect><path fill="#ffffff" d="M337.97 328.91q-2.34 0-3.72-1.03-1.38-1.03-1.38-3.37v-7.12h-3.85v-2.03h3.93l.91-4.24h1.61v4.24h6.01v2.03h-6.01v6.91q0 .89.37 1.46.36.57 1.06.83.7.26 1.77.26.83 0 1.55-.22.71-.22 1.26-.48v2q-.63.37-1.59.56-.96.2-1.92.2"></path><rect width="12.46" height="17.79" x="-6.23" y="-8.89" fill="none" rx="0" ry="0" transform="translate(335.75 320.51)"></rect><path fill="#ffffff" d="M350.58 328.65v-11.26h-4.76v-2.03h7.36v13.29Zm-4.76 0v-2.01h11.86v2.01Zm4.65-16.02v-2.5h2.45v2.5Z"></path><rect width="11.86" height="18.52" x="-5.93" y="-9.26" fill="none" rx="0" ry="0" transform="translate(352.25 319.89)"></rect><path fill="#ffffff" d="M366.75 328.91q-1.92 0-3.3-.86t-2.11-2.38q-.73-1.52-.73-3.45v-.44q0-1.97.73-3.48t2.11-2.35q1.38-.85 3.27-.85 1.95 0 3.33.86 1.38.86 2.11 2.36.73 1.51.73 3.46v.44q0 1.98-.73 3.49-.73 1.51-2.11 2.35-1.38.85-3.3.85m0-1.85q1.51 0 2.47-1.1.96-1.11.96-3.09v-1.74q0-1.97-.96-3.08-.96-1.1-2.47-1.1-1.48 0-2.46 1.1-.97 1.11-.97 3.08v1.74q0 1.98.97 3.09.98 1.1 2.46 1.1"></path><rect width="12.28" height="13.81" x="-6.14" y="-6.91" fill="none" rx="0" ry="0" transform="translate(367.25 322.5)"></rect><path fill="#ffffff" d="M376.79 328.65v-13.29h2.1l.26 1.9q.6-1.12 1.69-1.64 1.09-.52 2.42-.52 2.18 0 3.48 1.22 1.3 1.22 1.3 3.62v8.71h-2.6v-7.96q0-1.87-.76-2.73-.77-.86-2.15-.86-.96 0-1.66.48t-1.09 1.33q-.39.84-.39 1.94v7.8Z"></path><rect width="11.25" height="13.55" x="-5.63" y="-6.78" fill="none" rx="0" ry="0" transform="translate(382.92 322.38)"></rect><path fill="#ffffff" d="M407.18 328.52v-2.27l11.05-4.21-11.05-4.21v-2.29l13.26 5.12v2.73Z"></path><rect width="13.26" height="12.98" x="-6.63" y="-6.49" fill="none" rx="0" ry="0" transform="translate(414.31 322.53)"></rect><path fill="#ffffff" d="M442.96 328.91q-2.06 0-3.16-.97-1.11-.96-1.11-2.83 0-1.56.85-2.51.84-.95 2.73-1.39 1.88-.44 4.98-.44v-1.46q0-1.25-.64-1.82-.64-.57-2.15-.57-1.37 0-2.13.57-.75.57-.75 1.61v.32h-2.39q-.06-.42-.07-.55-.01-.13-.01-.1 0 .02.01.07.01.06.01 0 0-1.71 1.47-2.73 1.47-1.01 3.94-1.01 2.63 0 3.97 1.01 1.34 1.02 1.34 3.1v7.04q0 .42.2.6.21.18.55.18.6 0 1.04-.31v1.69q-.34.24-.83.37-.5.13-1.04.13-.78 0-1.28-.2-.49-.19-.72-.66-.24-.47-.32-1.3-.44.8-1.14 1.29-.7.48-1.56.67-.86.2-1.79.2m.8-1.85q1.2 0 1.97-.52.76-.52 1.14-1.4.38-.89.38-1.98v-.81q-2.24 0-3.55.25-1.32.25-1.87.81-.56.56-.56 1.57 0 1.04.61 1.56t1.88.52"></path><rect width="12.95" height="13.81" x="-6.47" y="-6.91" fill="none" rx="0" ry="0" transform="translate(445.67 322.5)"></rect><path fill="#ffffff" d="M454.79 328.65v-13.29h2.1l.26 1.9q.6-1.12 1.69-1.64 1.09-.52 2.42-.52 2.18 0 3.48 1.22 1.3 1.22 1.3 3.62v8.71h-2.6v-7.96q0-1.87-.76-2.73-.77-.86-2.15-.86-.96 0-1.66.48t-1.09 1.33q-.39.84-.39 1.94v7.8Z"></path><rect width="11.25" height="13.55" x="-5.63" y="-6.78" fill="none" rx="0" ry="0" transform="translate(460.92 322.38)"></rect><path fill="#ffffff" d="M475.77 328.91q-1.64 0-2.9-.46-1.26-.45-1.98-1.32-.71-.88-.71-2.07v-.24q0-.15.02-.33h2.24v.26q0 1.09.95 1.7.95.61 2.72.61 1.58 0 2.4-.56.82-.56.82-1.47 0-.6-.34-.99t-1.21-.67q-.87-.29-2.51-.55-1.74-.31-2.8-.76-1.07-.46-1.54-1.2t-.47-1.86q0-1.3.71-2.16.7-.86 1.96-1.3 1.26-.44 2.95-.44 1.48 0 2.67.44 1.18.44 1.88 1.24.7.79.7 1.91v.18q0 .1-.05.29h-2.26q0-.94-.43-1.42t-1.14-.65q-.72-.17-1.58-.17-3.01 0-3.01 1.87 0 .5.31.82.31.33 1.13.59.82.26 2.35.54 1.9.34 3.01.83 1.1.5 1.59 1.27.5.76.5 1.98 0 1.38-.72 2.29-.71.91-2.05 1.35-1.34.45-3.21.45"></path><rect width="11.57" height="13.81" x="-5.79" y="-6.91" fill="none" rx="0" ry="0" transform="translate(476.46 322.5)"></rect><path fill="#ffffff" d="m486.77 328.65-3.02-13.29h2.16l2.29 9.65h.1l2.16-9.65h2.47l2 9.65h.1l2.24-9.65h2.08l-2.94 13.29h-2.62l-2.06-9.94h-.1l-2.26 9.94Z"></path><rect width="15.6" height="13.29" x="-7.8" y="-6.64" fill="none" rx="0" ry="0" transform="translate(492.05 322.5)"></rect><path fill="#ffffff" d="M507.15 328.91q-2.08 0-3.44-.84-1.37-.83-2.03-2.34-.67-1.5-.67-3.45v-.55q0-2.03.76-3.51.75-1.48 2.16-2.3 1.4-.82 3.32-.82 1.8 0 3.09.73 1.28.73 2 1.97.71 1.25.71 2.86v1.77h-9.33v.44q0 2.06.99 3.12.98 1.07 2.49 1.07 1.67 0 2.54-.81.87-.8.87-2.49h2.44q0 1.58-.74 2.74-.74 1.16-2.05 1.78-1.32.63-3.11.63m-3.41-8.17h6.76v-.39q0-.99-.4-1.75-.4-.77-1.16-1.21-.75-.44-1.74-.44-1.12 0-1.88.54-.77.55-1.17 1.39-.41.85-.41 1.73Z"></path><rect width="12.04" height="13.81" x="-6.02" y="-6.91" fill="none" rx="0" ry="0" transform="translate(507.53 322.5)"></rect><path fill="#ffffff" d="M519.5 328.65v-11.26h-3.35v-2.03h5.46l.13 1.95q.46-1.04 1.44-1.62.97-.59 2.25-.59 1.95 0 3 1.16 1.05 1.15 1.05 2.95 0 .28-.01.53t-.06.59h-2.21v-.55q0-.7-.28-1.3-.27-.6-.83-.97-.56-.38-1.44-.38-.86 0-1.44.49-.59.5-.88 1.25-.28.75-.28 1.59v8.19Zm-3.48 0v-2.01H528v2.01Z"></path><rect width="13.46" height="13.55" x="-6.73" y="-6.78" fill="none" rx="0" ry="0" transform="translate(523.25 322.38)"></rect><path fill="#ffffff" d="M538.17 328.91q-1.64 0-2.9-.46-1.26-.45-1.98-1.32-.71-.88-.71-2.07v-.24q0-.15.02-.33h2.24v.26q0 1.09.95 1.7.95.61 2.72.61 1.58 0 2.4-.56.82-.56.82-1.47 0-.6-.34-.99t-1.21-.67q-.87-.29-2.51-.55-1.74-.31-2.8-.76-1.07-.46-1.54-1.2t-.47-1.86q0-1.3.71-2.16.7-.86 1.96-1.3 1.26-.44 2.95-.44 1.48 0 2.67.44 1.18.44 1.88 1.24.7.79.7 1.91v.18q0 .1-.05.29h-2.26q0-.94-.43-1.42t-1.14-.65q-.72-.17-1.58-.17-3.01 0-3.01 1.87 0 .5.31.82.31.33 1.13.59.82.26 2.35.54 1.9.34 3.01.83 1.1.5 1.59 1.27.5.76.5 1.98 0 1.38-.72 2.29-.71.91-2.05 1.35-1.34.45-3.21.45"></path><rect width="11.57" height="13.81" x="-5.79" y="-6.91" fill="none" rx="0" ry="0" transform="translate(538.87 322.5)"></rect><path fill="#ffffff" d="M74.47 239.06q-2.72 0-4.51-1.09-1.78-1.08-2.65-3.06-.87-1.97-.87-4.52v-.71q0-2.65.99-4.59.98-1.94 2.82-3.01 1.84-1.07 4.35-1.07 2.35 0 4.03.95 1.68.95 2.62 2.58.93 1.64.93 3.74v2.32h-12.2v.57q0 2.69 1.29 4.08 1.29 1.4 3.26 1.4 2.18 0 3.32-1.06 1.14-1.05 1.14-3.26h3.19q0 2.07-.97 3.59-.96 1.51-2.68 2.33-1.72.81-4.06.81m-4.46-10.67h8.84v-.51q0-1.3-.53-2.3-.52-1-1.51-1.58-.98-.58-2.28-.58-1.46 0-2.46.72-1 .71-1.53 1.82-.53 1.1-.53 2.26Z"></path><rect width="15.74" height="18.05" x="-7.87" y="-9.03" fill="none" rx="0" ry="0" transform="translate(74.81 230.53)"></rect><path fill="#ffffff" d="M94.63 239.06q-2.14 0-3.79-.59-1.65-.6-2.59-1.74-.93-1.14-.93-2.7v-.31q0-.2.03-.44h2.93v.34q0 1.43 1.24 2.23t3.55.8q2.07 0 3.14-.73 1.08-.73 1.08-1.92 0-.79-.45-1.3-.44-.51-1.58-.88-1.14-.37-3.28-.71-2.28-.41-3.67-1.01-1.39-.59-2.01-1.56-.61-.97-.61-2.43 0-1.7.92-2.82.92-1.13 2.57-1.7 1.65-.58 3.86-.58 1.93 0 3.48.58 1.55.57 2.47 1.61.91 1.04.91 2.5v.24q0 .13-.06.37h-2.96q0-1.22-.56-1.85-.56-.63-1.5-.85-.93-.22-2.06-.22-3.94 0-3.94 2.45 0 .64.41 1.07.41.42 1.48.76t3.07.72q2.49.44 3.93 1.08 1.45.65 2.09 1.65.65 1.01.65 2.6 0 1.81-.94 3-.93 1.19-2.68 1.76-1.75.58-4.2.58"></path><rect width="15.13" height="18.05" x="-7.57" y="-9.03" fill="none" rx="0" ry="0" transform="translate(95.39 230.53)"></rect><path fill="#ffffff" d="M118.43 239.06q-3.06 0-4.86-1.34-1.81-1.34-1.81-4.4V224h-5.03v-2.65h5.14l1.19-5.54h2.1v5.54h7.86V224h-7.86v9.04q0 1.16.48 1.91t1.39 1.09q.92.34 2.32.34 1.08 0 2.02-.29.93-.29 1.65-.63v2.62q-.82.47-2.08.73-1.25.25-2.51.25"></path><rect width="16.29" height="23.25" x="-8.14" y="-11.63" fill="none" rx="0" ry="0" transform="translate(115.38 227.94)"></rect><path fill="#ffffff" d="M133.46 238.72v-4.21h4.42v4.21Z"></path><rect width="4.42" height="4.21" x="-2.21" y="-2.1" fill="none" rx="0" ry="0" transform="translate(136.17 237.12)"></rect><path fill="#ffffff" d="M666.97 237.98v-.93q0-1.92.71-3.3.72-1.38 2.23-2.4l6.24-4.09q.99-.68 1.72-1.75.72-1.07.72-2.53 0-1.8-1.05-2.88-1.05-1.09-3.1-1.09-1.24 0-2.22.54-.97.55-1.55 1.49-.57.95-.57 2.16v.45q0 .2.03.38h-2.94q-.03-.21-.03-.32v-.23q0-2.08.93-3.68.93-1.59 2.58-2.49 1.66-.9 3.8-.9h.34q2.14 0 3.71.82 1.56.82 2.41 2.28.86 1.45.86 3.38 0 1.61-.55 2.8-.54 1.2-1.45 2.09-.92.9-2.06 1.68l-5.24 3.41q-.68.46-1.06.88-.37.42-.52.79-.16.37-.22.72h11.19v2.72Z"></path><rect width="14.91" height="21.57" x="-7.46" y="-10.79" fill="none" rx="0" ry="0" transform="translate(674.92 227.7)"></rect><path fill="#ffffff" d="M692.7 238.29q-1.98 0-3.6-.91-1.61-.92-2.54-2.53-.93-1.61-.93-3.72v-7.56q0-2.11.95-3.72.94-1.61 2.57-2.53 1.63-.91 3.64-.91h.56q2.05 0 3.63.91 1.58.92 2.49 2.53.92 1.61.92 3.72v7.56q0 2.11-.93 3.72-.93 1.61-2.54 2.53-1.62.91-3.63.91Zm.31-2.48q1.21 0 2.17-.57t1.5-1.53q.55-.97.55-2.17v-8.37q0-1.24-.55-2.21-.54-.96-1.5-1.51-.96-.56-2.17-.56t-2.16.56q-.94.55-1.5 1.51-.56.97-.56 2.21v8.37q0 1.2.56 2.17.56.96 1.5 1.53.95.57 2.16.57"></path><rect width="14.76" height="21.88" x="-7.38" y="-10.94" fill="none" rx="0" ry="0" transform="translate(693.51 227.85)"></rect><path fill="#ffffff" d="M704.91 237.98v-2.57h5.61v-15.1h-5.61v-1.89q1.03-.09 2.27-.35 1.24-.27 2.62-.69 1.38-.41 2.71-.97h1.15v19h5.54v2.57Z"></path><rect width="14.29" height="21.57" x="-7.14" y="-10.79" fill="none" rx="0" ry="0" transform="translate(712.55 227.7)"></rect><path fill="#ffffff" d="M730.27 238.29q-2.26 0-3.94-.91-1.67-.92-2.57-2.48-.9-1.57-.9-3.61h2.95q0 1.24.54 2.24.54 1.01 1.52 1.6.98.59 2.31.59 1.39 0 2.37-.62.98-.62 1.49-1.67.51-1.06.51-2.27 0-1.3-.57-2.34-.58-1.04-1.57-1.62-.99-.59-2.23-.59-1.21 0-2.28.62-1.07.62-1.66 1.58l-2.63-.37.9-11.72h12.02v2.88h-9.45l-.47 6.2q.81-.74 1.93-1.21 1.11-.46 2.41-.46 2.02 0 3.52.88 1.51.88 2.36 2.48.85 1.6.85 3.74 0 2.01-.93 3.59t-2.59 2.53q-1.66.94-3.89.94"></path><rect width="14.82" height="21.57" x="-7.41" y="-10.79" fill="none" rx="0" ry="0" transform="translate(730.77 228)"></rect><path fill="#ffffff" d="M393.05 373.31v-17.84h6.22q1.48 0 2.75.39 1.28.39 2.24 1.26.96.87 1.51 2.29.54 1.42.54 3.45v3.06q0 1.98-.54 3.4-.55 1.41-1.51 2.29-.96.87-2.24 1.28-1.27.42-2.75.42Zm2.76-2.21h3.27q1.28 0 2.27-.43.98-.43 1.57-1.5.58-1.06.58-3.01v-3.56q0-1.9-.58-2.98-.59-1.08-1.57-1.52-.99-.44-2.27-.44h-3.27Z"></path><rect width="13.26" height="17.84" x="-6.63" y="-8.92" fill="none" rx="0" ry="0" transform="translate(400.18 364.89)"></rect><path fill="#ffffff" d="M414.37 373.57q-1.43 0-2.64-.42-1.21-.41-2.12-1.34-.91-.92-1.41-2.45-.51-1.54-.51-3.77v-2.4q0-2.23.52-3.77.52-1.53 1.43-2.45.91-.93 2.12-1.34 1.21-.42 2.59-.42h.36q2.03 0 3.47.78 1.44.78 2.2 2.36.75 1.57.75 3.93h-2.62q0-1.71-.38-2.79t-1.26-1.59q-.89-.5-2.37-.5-.86 0-1.57.24-.72.25-1.26.84-.55.58-.86 1.59-.31 1.02-.31 2.55v3.51q0 1.54.31 2.56.31 1.03.86 1.62.54.58 1.26.83.71.24 1.57.24 2.24 0 3.16-1.15.92-1.16.92-3.71h2.55q0 2.29-.75 3.85-.76 1.56-2.19 2.38-1.43.82-3.45.82Z"></path><rect width="13.44" height="18.36" x="-6.72" y="-9.18" fill="none" rx="0" ry="0" transform="translate(414.91 364.89)"></rect><path fill="#ffffff" d="m453.06 118.75-4.618-27.295a4.776 4.776 0 0 0 1.933-3.829 4.798 4.798 0 0 0-4.8-4.797 4.77 4.77 0 0 0-1.823.364L431.615 70.68a8.193 8.193 0 0 0 2.318-5.712c0-4.536-3.69-8.227-8.227-8.227-3.055 0-5.72 1.677-7.14 4.156l-19.335-4.119a4.044 4.044 0 0 0-8.004.812c0 .708.199 1.366.519 1.944l-17.604 18.22c-.25-.037-.501-.076-.763-.076a5.06 5.06 0 0 0-5.06 5.06c0 1.873 1.028 3.49 2.54 4.365l-9.16 23.54c-.234-.032-.467-.07-.71-.07a5.06 5.06 0 0 0-5.06 5.061 5.058 5.058 0 0 0 3.129 4.675l-.342 24.53c-1.929.717-3.31 2.556-3.31 4.734a5.06 5.06 0 0 0 5.06 5.06c2.556 0 4.65-1.902 4.99-4.367l41.96-2.773a4.609 4.609 0 0 0 4.172 2.664 4.574 4.574 0 0 0 2.822-.985l16.873 5.693c.608 3.94 4.013 6.97 8.12 6.97 4.537 0 8.227-3.69 8.227-8.227a8.197 8.197 0 0 0-2.605-5.99l7.98-19.768a4.61 4.61 0 0 0 3.925-4.554c.004-2.296-1.677-4.187-3.87-4.546m-57.874-2.632a8.207 8.207 0 0 0-2.166-4.19l10.219-16.435c.624.211 1.29.332 1.987.332a6.146 6.146 0 0 0 3.216-.909l16.413 21.152a5.7 5.7 0 0 0-1.072 2.008zm-8.082 8.412c-3.804 0-6.9-3.096-6.9-6.9s3.096-6.9 6.9-6.9c3.804 0 6.9 3.096 6.9 6.9s-3.096 6.9-6.9 6.9m23.415-31.693a6.211 6.211 0 0 0 .732-1.846l29.795-1.846a4.781 4.781 0 0 0 .894 1.581l-12.15 23.279c-.169-.015-.33-.052-.502-.052a5.715 5.715 0 0 0-2.103.41zm30.396-6.308-29.64 1.844a6.175 6.175 0 0 0-1.01-2.332l10.77-14.308a8.163 8.163 0 0 0 8.302.606l12.196 12.724a4.753 4.753 0 0 0-.618 1.466m-15.21-28.46c3.805 0 6.9 3.096 6.9 6.9s-3.094 6.9-6.9 6.9-6.899-3.096-6.899-6.9 3.096-6.9 6.9-6.9m-26.96 1.56 18.85 4.014a8.23 8.23 0 0 0-.116 1.326c0 1.774.57 3.415 1.529 4.76l-10.883 14.43a6.122 6.122 0 0 0-2.355-.695 5.634 5.634 0 0 0-.866-.068c-.192 0-.37.038-.556.056l-6.846-22.493a4.063 4.063 0 0 0 1.243-1.33m-4.639 1.813c.18.055.365.1.556.13l6.965 22.848a5.753 5.753 0 0 0-2.252 3.186c-.031.09-.063.18-.09.271l-20.93-5.962a5.023 5.023 0 0 0-1.632-2.946zm-16.104 23.34 21.126 5.915a6.16 6.16 0 0 0 1.866 3.45l-10.073 16.202a8.166 8.166 0 0 0-3.817-.945c-.47 0-.929.048-1.378.125l-9.258-22.807a5.068 5.068 0 0 0 1.534-1.94m-4.606 3.016c.23 0 .447-.037.667-.067l9.189 22.635a8.248 8.248 0 0 0-4.219 5.688l-13.075-1.348a5.024 5.024 0 0 0-1.85-3.033zm-10.355 57.438a5.045 5.045 0 0 0-1.422-.58l.315-24.059a5.042 5.042 0 0 0 3.807-3.284l13.21 1.36a8.193 8.193 0 0 0 2.192 4.61zm44.02-.613-42.043 2.777c-.043-.093-.096-.18-.146-.272l18.349-22.248a8.171 8.171 0 0 0 7.63.066l16.851 18.108a4.566 4.566 0 0 0-.642 1.569m6.41-3.301a4.59 4.59 0 0 0-1.882-.409c-.584 0-1.134.118-1.646.317l-16.807-18.024a8.197 8.197 0 0 0 2.07-4.191l28.445 1.95a5.739 5.739 0 0 0 .778 1.87zm2.127 1.959 10.96-18.489c.816.441 1.735.716 2.728.716.069 0 .135-.018.2-.02l6.053 20.862a8.252 8.252 0 0 0-4.166 5.493l-15.32-5.17c.092-.367.156-.743.156-1.137a4.58 4.58 0 0 0-.61-2.255m30.705 10.328c0 3.804-3.095 6.9-6.9 6.9s-6.9-3.096-6.9-6.9 3.095-6.9 6.9-6.9 6.9 3.096 6.9 6.9m-3.744-7.596a8.178 8.178 0 0 0-3.156-.631c-.385 0-.76.036-1.13.087l-6.008-20.812a5.768 5.768 0 0 0 2.638-3.617l13.16 4.069a4.614 4.614 0 0 0 2.038 2.221zm5.268-23.784-13.01-4.077a5.75 5.75 0 0 0-2.246-3.164l11.825-22.727c-1.526-.535.768.163 1.18.163.036 0 .07-.01.108-.01l4.52 26.79a4.611 4.611 0 0 0-2.377 3.025"></path><path fill="#ffffff" d="m423.95 69.511 1.68-2.436 1.732 2.436h2.947l-3.16-4.527 3.047-4.334h-2.9l-1.567 2.376-1.513-2.376h-2.948l2.934 4.348-3.1 4.513zm19.94 79.67h-2.9l-1.56 2.37-1.514-2.37h-2.954l2.934 4.348-3.093 4.513h2.848l1.68-2.442 1.725 2.442h2.954l-3.166-4.533zm-52.3-36.005h-2.894l-1.567 2.377-1.513-2.377h-2.948l2.928 4.348-3.094 4.514h2.848l1.68-2.436 1.732 2.436h2.947l-3.166-4.527z"></path></svg></svg>